# xmcd
#
# Track frame offsets:
# 150
# 17480
# 33490
# 47630
# 55895
# 69703
# 80410
# 93850
# 104028
# 117142
# 128038
# 139438
# 156218
# 169047
# 181732
# 191850
# 205882
# 216332
# 223055
# 235845
#
# Disc length: 3355 seconds
#
#
# Revision: 0
# Processed by: cddbd v1.5.2PL0 Copyright (c) Steve Scherf et al.
# Submitted via: FreeRIP 2.92 
#
DISCID=250d1914
DTITLE=That's Bluegrass [CD2] - That's Bluegrass [CD2]
DYEAR=1900
DGENRE=Bluegrass
TTITLE0=Dueling Banjos
TTITLE1=Kentucky
TTITLE2=Black Mountain Rag
TTITLE3=I'm Rollin' On
TTITLE4=Cheyenne
TTITLE5=Roll In My Sweet Baby's Arms
TTITLE6=It's a Long Way to the Top of the World
TTITLE7=Guitar Rag
TTITLE8=Lee Highway Blues
TTITLE9=Down the Old Plank Road
TTITLE10=Black and White Rag
TTITLE11=Ruby, Don't Take Your Love to Town
TTITLE12=Wabash Cannonball
TTITLE13=The Golden Vanity
TTITLE14=Fire on the Strings
TTITLE15=John Henry
TTITLE16=Cool Water
TTITLE17=Salty Dog Blues
TTITLE18=I wonder How the Old Folks are at Home
TTITLE19=Orange Blossom Special
EXTD=
EXTT0=
EXTT1=
EXTT2=
EXTT3=
EXTT4=
EXTT5=
EXTT6=
EXTT7=
EXTT8=
EXTT9=
EXTT10=
EXTT11=
EXTT12=
EXTT13=
EXTT14=
EXTT15=
EXTT16=
EXTT17=
EXTT18=
EXTT19=
PLAYORDER=
